<svg xmlns="http://www.w3.org/2000/svg" width="600" height="600" viewBox="0 0 225 225">
  <!-- Title -->
  <text x="112.5" y="12.5" font-family="Arial" font-size="9" fill="#000000" text-anchor="middle" font-weight="bold">Leave-One-Out Cross-Validation (LOOCV)</text>

  <!-- All Data -->
  <rect x="62.5" y="20" width="100" height="15" fill="#b3d9ff" stroke="#000000" stroke-width="0.5"/>
  <text x="112.5" y="30" font-family="Arial" font-size="6" fill="#000000" text-anchor="middle">All Data (n observations)</text>
  
  <!-- Arrow -->
  <line x1="112.5" y1="37.5" x2="112.5" y2="47.5" stroke="#000000" stroke-width="1"/>
  <polygon points="110,47.5 112.5,52.5 115,47.5" fill="#000000"/>
  
  <!-- LOOCV Iterations -->
  <g transform="translate(37.5,55)">
    <!-- Iteration 1 -->
    <rect x="25" y="0" width="100" height="12.5" fill="#b3d9ff" stroke="#000000" stroke-width="0.5"/>
    <rect x="25" y="0" width="10" height="12.5" fill="#f5e6c9" stroke="#000000" stroke-width="0.5"/>
    <text x="30" y="8.5" font-family="Arial" font-size="6" fill="#000000" text-anchor="middle">1</text>
    <text x="120" y="8.5" font-family="Arial" font-size="6" fill="#000000" text-anchor="end">Iteration 1</text>
    
    <!-- Iteration 2 -->
    <rect x="25" y="15" width="100" height="12.5" fill="#b3d9ff" stroke="#000000" stroke-width="0.5"/>
    <rect x="35" y="15" width="10" height="12.5" fill="#f5e6c9" stroke="#000000" stroke-width="0.5"/>
    <text x="40" y="23.5" font-family="Arial" font-size="6" fill="#000000" text-anchor="middle">2</text>
    <text x="120" y="23.5" font-family="Arial" font-size="6" fill="#000000" text-anchor="end">Iteration 2</text>
    
    <!-- Iteration 3 -->
    <rect x="25" y="30" width="100" height="12.5" fill="#b3d9ff" stroke="#000000" stroke-width="0.5"/>
    <rect x="45" y="30" width="10" height="12.5" fill="#f5e6c9" stroke="#000000" stroke-width="0.5"/>
    <text x="50" y="38.5" font-family="Arial" font-size="6" fill="#000000" text-anchor="middle">3</text>
    <text x="120" y="38.5" font-family="Arial" font-size="6" fill="#000000" text-anchor="end">Iteration 3</text>
    
    <!-- Ellipsis to indicate continuation -->
    <text x="75" y="52.5" font-family="Arial" font-size="10" fill="#000000" text-anchor="middle">...</text>
    
    <!-- Last Iteration -->
    <rect x="25" y="62.5" width="100" height="12.5" fill="#b3d9ff" stroke="#000000" stroke-width="0.5"/>
    <rect x="115" y="62.5" width="10" height="12.5" fill="#f5e6c9" stroke="#000000" stroke-width="0.5"/>
    <text x="120" y="71" font-family="Arial" font-size="6" fill="#000000" text-anchor="middle">n</text>
  </g>
  
  <!-- Legend -->
  <rect x="40" y="150" width="10" height="10" fill="#b3d9ff" stroke="#000000" stroke-width="0.5"/>
  <text x="55" y="157.5" font-family="Arial" font-size="6" fill="#000000">Training Set</text>
  <rect x="40" y="165" width="10" height="10" fill="#f5e6c9" stroke="#000000" stroke-width="0.5"/>
  <text x="55" y="172.5" font-family="Arial" font-size="6" fill="#000000">Validation Set (1 observation)</text>
</svg>